<svg xmlns="http://www.w3.org/2000/svg" viewBox="0 0 240 240" width="240" height="240" role="img" aria-label="Vitraag Collective seal">
  <title>Vitraag Collective</title>
  <circle cx="120" cy="120" r="100" fill="none" stroke="#EDE3CB" stroke-width="2.8"/>
  <circle cx="120" cy="120" r="92" fill="none" stroke="#EDE3CB" stroke-width="1.4"/>
  <polygon points="30,26 120,218 210,26 172,26 120,168 68,26" fill="#EDE3CB"/>
  <rect x="24" y="20" width="12" height="12" transform="rotate(45 30 26)" fill="#EDE3CB"/>
  <rect x="62" y="20" width="12" height="12" transform="rotate(45 68 26)" fill="#EDE3CB"/>
  <rect x="166" y="20" width="12" height="12" transform="rotate(45 172 26)" fill="#EDE3CB"/>
  <rect x="204" y="20" width="12" height="12" transform="rotate(45 210 26)" fill="#EDE3CB"/>
  <path d="M185.3,52.4 A94,94 0 1 0 185.3,187.6 L172.8,174.7 A76,76 0 1 1 172.8,65.3 Z" fill="#E8A020" stroke="#12181A" stroke-width="1.6" stroke-linejoin="round"/>
  <circle cx="185.3" cy="52.4" r="5.5" fill="#EDE3CB"/>
  <circle cx="185.3" cy="187.6" r="5.5" fill="#EDE3CB"/>
</svg>
